<?xml version="1.0" encoding="UTF-8" standalone="no"?><!DOCTYPE svg PUBLIC "-//W3C//DTD SVG 1.1//EN" "http://www.w3.org/Graphics/SVG/1.1/DTD/svg11.dtd"><svg width="100%" height="100%" viewBox="0 0 5550 1334" version="1.1" xmlns="http://www.w3.org/2000/svg" xmlns:xlink="http://www.w3.org/1999/xlink" xml:space="preserve" xmlns:serif="http://www.serif.com/" style="fill-rule:evenodd;clip-rule:evenodd;stroke-linejoin:round;stroke-miterlimit:2;"><g><g><path d="M1900.04,862.999c152.232,-757.393 154.224,-757.393 154.224,-757.393c0,-0 -198.295,-1.918 -4,-0l194.295,1.922l260.374,419.914l84.13,-419.914l224.342,0l-162.244,757.378l0,5.762l-186.279,0l-260.393,-418.011l-88.126,416.089l-216.323,-5.747Z" style="fill:#262982;fill-rule:nonzero;"/><path d="M113.496,735.748c97.121,-491.048 2.183,-9.822 0,0Z" style="fill:#312682;fill-rule:nonzero;"/><path d="M3258.065,867.785l-38.499,-1.237l12.02,-62.724c6.593,-34.483 38.848,-204.217 71.655,-377.155l59.655,-314.457l95.516,0.376c52.526,0.205 96.246,1.136 97.136,2.082c1.583,1.687 -49.412,292.548 -53.136,303.097c-1.047,2.954 -0.075,4.7 2.183,3.87c2.238,-0.816 58.444,-57.282 124.907,-125.463c66.464,-68.192 137.538,-140.998 157.935,-161.819l37.101,-37.843l58.198,56.947c31.995,31.31 58.183,58.284 58.183,59.93c0,1.628 -55.635,58.183 -123.641,125.649c-68.006,67.465 -122.885,124.792 -121.954,127.366c0.931,2.592 50.529,88.085 110.198,189.974c59.666,101.908 112.236,191.807 116.788,199.781l8.31,14.508l-220.222,-0.32l-62.81,-105.222c-34.543,-57.867 -71.555,-119.745 -82.223,-137.508l-19.409,-32.285l-97.333,97.363l-13.722,80.286c-7.55,44.156 -14.578,84.197 -15.61,88.987c-1.892,8.626 -2.358,8.686 -62.318,7.87c-33.217,-0.451 -77.723,-1.367 -98.909,-2.052Z" style="fill:#262982;fill-rule:nonzero;"/><path d="M2929.566,868.5c-97.583,-1.05 -105.177,-1.616 -103.185,-7.904c1.177,-3.725 37.683,-172.237 81.098,-374.462c43.419,-202.239 79.95,-370.767 81.187,-374.532c2.052,-6.302 11.364,-6.853 116.572,-6.853c98.589,0 114.329,0.812 114.329,5.848c0,3.215 -36.286,174.48 -80.662,380.589c-44.361,206.109 -80.647,375.974 -80.647,377.486c0,1.516 -5.266,2.343 -11.684,1.847c-6.414,-0.492 -59.07,-1.408 -117.008,-2.019Z" style="fill:#262982;fill-rule:nonzero;"/><path d="M550.857,990.8c0,-0.466 0.931,-2.618 2.067,-4.801c1.136,-2.183 2.067,-4.946 2.082,-6.168c0,-3.114 -4.615,-6.924 -9.967,-8.187c-2.868,-0.674 2.894,-1.076 15.495,-1.095c11.591,-0.015 18.564,0.421 16.526,1.047c-6.518,1.978 -10.243,4.481 -18.244,12.28c-4.38,4.265 -7.96,7.379 -7.96,6.924Z" style="fill:#312682;fill-rule:nonzero;"/><path d="M1879.848,1107.297l0,118.512c0,8.287 0.291,13.468 0.868,15.536c0.577,2.071 2.41,3.922 5.494,5.55c3.084,1.631 6.648,2.592 10.697,2.887c4.049,0.294 11.275,0.443 21.681,0.443c21.972,0 38.599,-9.99 49.874,-29.973c11.278,-19.983 18.359,-52.03 21.249,-96.142l3.769,0l0,131.422l-188.421,0l0,-4.425c17.197,0 28.602,-1.624 34.204,-4.879c1.933,-1.184 3.237,-2.738 3.915,-4.663c0.674,-1.926 1.013,-7.028 1.013,-15.312l0,-227.295c0,-8.578 -0.387,-13.901 -1.159,-15.975c-0.387,-1.185 -1.643,-2.369 -3.769,-3.553c-2.127,-1.181 -6.474,-2.365 -13.044,-3.55c-6.57,-1.184 -13.625,-1.777 -21.16,-1.777l0,-3.982l178.856,0l0,110.627l-3.769,0c0,-22.814 -3.758,-44.585 -11.275,-65.32c-10.019,-27.552 -24.181,-41.325 -42.491,-41.325c-7.319,0 -14.69,0.074 -22.11,0.223c-7.416,0.145 -14.016,1.557 -19.801,4.231c-1.732,1.188 -2.935,2.749 -3.609,4.678c-0.678,1.933 -1.013,7.207 -1.013,15.819l0,103.818c19.987,0 32.382,-3.099 37.191,-9.293c7.3,-9.442 12.392,-34.811 15.275,-76.11l3.479,0l0,174.345l-3.479,0c-2.883,-40.417 -7.878,-65.342 -14.992,-74.784c-4.995,-6.488 -17.487,-9.733 -37.474,-9.733Z" style="fill:#262982;fill-rule:nonzero;"/><path d="M2120.057,1250.225c23.32,0 41.15,-10.88 53.487,-32.636c12.336,-21.756 18.504,-54.686 18.504,-98.786l3.769,0l0,136.73l-189.583,0l0,-4.425c8.503,0 15.752,-0.443 21.741,-1.33c5.993,-0.887 10.098,-1.996 12.321,-3.33c2.22,-1.33 3.673,-2.957 4.347,-4.883c0.678,-1.926 1.017,-7.028 1.017,-15.312l0,-227.295c0,-8.578 -0.387,-13.901 -1.162,-15.975c-0.384,-1.185 -1.691,-2.369 -3.911,-3.553c-2.224,-1.181 -6.57,-2.365 -13.048,-3.55c-6.473,-1.184 -13.573,-1.777 -21.305,-1.777l0,-3.982l119.142,0l0,3.982c-10.824,0 -19.279,0.443 -25.365,1.33c-6.086,0.89 -10.388,2.071 -12.899,3.553c-2.514,1.479 -3.963,2.812 -4.351,3.997c-0.965,2.663 -1.449,7.989 -1.449,15.983l0,226.845c0,8.585 0.387,14.057 1.155,16.422c0.387,1.184 1.546,2.369 3.471,3.553c6.555,2.961 17.927,4.44 34.118,4.44Z" style="fill:#262982;fill-rule:nonzero;"/><path d="M2277.563,1107.297l0,118.512c0,8.287 0.287,13.468 0.868,15.536c0.577,2.071 2.41,3.922 5.494,5.55c3.084,1.631 6.648,2.592 10.697,2.887c4.049,0.294 11.275,0.443 21.682,0.443c21.972,0 38.595,-9.99 49.873,-29.973c11.275,-19.983 18.359,-52.03 21.249,-96.142l3.769,0l0,131.422l-188.421,0l0,-4.425c17.197,0 28.598,-1.624 34.204,-4.879c1.933,-1.184 3.237,-2.738 3.915,-4.663c0.674,-1.926 1.013,-7.028 1.013,-15.312l0,-227.295c0,-8.578 -0.387,-13.901 -1.159,-15.975c-0.387,-1.185 -1.643,-2.369 -3.769,-3.553c-2.127,-1.181 -6.474,-2.365 -13.044,-3.55c-6.57,-1.184 -13.625,-1.777 -21.16,-1.777l0,-3.982l178.852,0l0,110.627l-3.766,0c0,-22.814 -3.758,-44.585 -11.275,-65.32c-10.019,-27.552 -24.181,-41.325 -42.491,-41.325c-7.323,0 -14.69,0.074 -22.11,0.223c-7.416,0.145 -14.016,1.557 -19.801,4.231c-1.732,1.188 -2.935,2.749 -3.609,4.678c-0.678,1.933 -1.013,7.207 -1.013,15.819l0,103.818c19.987,0 32.382,-3.099 37.191,-9.293c7.3,-9.442 12.392,-34.811 15.275,-76.11l3.479,0l0,174.345l-3.479,0c-2.883,-40.417 -7.882,-65.342 -14.992,-74.784c-4.995,-6.488 -17.487,-9.733 -37.474,-9.733Z" style="fill:#262982;fill-rule:nonzero;"/><path d="M2554.687,1136.942c0,42.778 -5.363,73.898 -16.09,93.37c-10.723,19.469 -26.233,29.205 -46.525,29.205c-22.996,0 -42.417,-10.623 -58.265,-31.861c-18.936,-25.369 -28.408,-61.804 -28.408,-109.297c0,-46.317 9.584,-84.223 28.754,-113.722c16.459,-25.373 34.081,-38.059 52.861,-38.059c9.099,0 17.04,2.51 23.819,7.524c8.712,6.492 16.65,17.111 23.816,31.861l14.239,-41.597l1.449,0l0,128.327l-2.317,-2.212c0,-37.917 -6.879,-68.337 -20.642,-91.259c-11.431,-19.108 -23.447,-28.658 -36.044,-28.658c-16.858,0 -28.97,11.856 -36.334,35.563c-7.364,23.711 -11.047,59.427 -11.047,107.144c0,46.831 3.974,82.249 11.919,106.254c7.941,24.006 20.054,36.007 36.327,36.007c18.411,0 32.557,-8.258 42.443,-24.777c11.818,-19.473 17.725,-50.742 17.725,-93.814l2.321,0Z" style="fill:#262982;fill-rule:nonzero;"/><path d="M2734.12,970.121l0,126.114l-4.056,0c-4.444,-48.261 -11.498,-81.422 -21.16,-99.483c-7.926,-15.1 -19.618,-22.65 -35.075,-22.65c-3.867,0 -5.993,0.294 -6.38,0.887c-0.771,0.89 -1.159,4.738 -1.159,11.546l0,239.717c0,8.578 0.387,14.053 1.159,16.422c0.387,1.184 1.739,2.443 4.06,3.773c2.321,1.333 6.764,2.443 13.334,3.33c6.57,0.886 15.461,1.33 26.669,1.33l0,4.425l-126.099,0l0,-4.425c11.018,0 19.812,-0.443 26.382,-1.33c6.57,-0.887 11.014,-1.996 13.334,-3.33c2.317,-1.33 3.814,-2.957 4.492,-4.883c0.678,-1.926 1.013,-7.028 1.013,-15.312l0,-239.274c0,-7.695 -0.577,-11.837 -1.74,-12.433c-0.577,-0.294 -2.607,-0.443 -6.086,-0.443c-15.074,0 -26.572,7.405 -34.494,22.21c-9.665,18.352 -16.91,51.367 -21.741,99.036l-4.06,0l0,-125.228l171.608,0Z" style="fill:#262982;fill-rule:nonzero;"/><path d="M2816.738,1102.429l26.851,0c14.046,0 24.438,-4.012 31.176,-12.031c8.083,-9.505 12.124,-25.544 12.124,-48.123c0,-24.952 -3.319,-42.551 -9.96,-52.797c-6.641,-10.25 -17.659,-15.375 -33.057,-15.375l-13.856,0c-4.042,0 -7.025,0.447 -8.951,1.337c-1.922,0.894 -3.125,2.749 -3.606,5.572c-0.48,2.82 -0.722,8.537 -0.722,17.152l0,104.265Zm117.402,89.385l0,14.601c0,17.405 -1.069,29.503 -3.207,36.286c-3.498,11.211 -10.392,16.817 -20.687,16.817c-13.405,0 -22.247,-7.673 -26.52,-23.011c-3.497,-12.388 -5.244,-35.992 -5.244,-70.799l0,-9.293c0,-2.95 0.097,-6.049 0.291,-9.293c0,-15.636 -2.406,-26.181 -7.215,-31.638c-4.809,-5.46 -11.733,-8.187 -20.773,-8.187l-34.047,0l0,118.955c0,8.88 0.339,14.5 1.013,16.869c0.678,2.365 2.127,4.216 4.351,5.546c2.22,1.333 6.764,2.145 13.625,2.44c6.857,0.298 14.057,0.443 21.596,0.443l0,3.982l-117.983,0l0,-4.425c20.292,0 32.468,-1.184 36.524,-3.553c1.933,-1.177 3.285,-2.879 4.06,-5.103c0.775,-2.22 1.159,-7.621 1.159,-16.199l0,-228.178c0,-8.287 -0.384,-13.469 -1.159,-15.536c-0.387,-1.184 -1.642,-2.369 -3.769,-3.553c-5.602,-3.255 -17.875,-4.883 -36.815,-4.883l0,-3.982l118.561,0c20.873,0 37.493,8.567 49.859,25.7c9.859,13.588 14.787,27.622 14.787,42.1c0,17.133 -3.885,31.164 -11.647,42.093c-9.315,13.293 -24.065,21.711 -44.246,25.257c20.601,6.187 34.207,23.715 40.819,52.589c3.323,14.437 4.984,36.238 4.984,65.406c0,8.541 0.492,14.727 1.468,18.556c0.979,3.833 3.326,5.747 7.04,5.747c4.112,0 6.947,-4.943 8.511,-14.824c1.565,-9.882 2.347,-23.525 2.347,-40.931l2.321,0Z" style="fill:#262982;fill-rule:nonzero;"/><path d="M3116.184,1112.605c0,43.367 -9.569,79.358 -28.699,107.971c-17.394,25.961 -37.009,38.942 -58.847,38.942c-22.225,0 -41.839,-12.392 -58.846,-37.172c-19.13,-28.025 -28.695,-64.605 -28.695,-109.74c0,-43.363 9.565,-79.206 28.695,-107.528c17.394,-25.663 37.009,-38.498 58.846,-38.498c22.225,0 41.84,12.243 58.847,36.729c19.13,27.73 28.699,64.161 28.699,109.297Zm-38.554,0.223c0,-46.536 -4.093,-81.884 -12.284,-106.035c-8.19,-24.155 -20.474,-36.23 -36.852,-36.23c-16.184,0 -28.371,12.075 -36.562,36.23c-8.187,24.151 -12.284,59.498 -12.284,106.035c0,45.952 4.097,81.221 12.284,105.815c8.19,24.594 20.378,36.889 36.562,36.889c15.994,0 28.181,-12.295 36.561,-36.889c8.385,-24.594 12.575,-59.863 12.575,-105.815Zm-64.065,-158.638l-5.796,0l12.173,-50.004l28.122,0l-34.498,50.004Z" style="fill:#262982;fill-rule:nonzero;"/><path d="M3288.95,1167.898l0,-123.283c0,-26.904 -2.995,-45.378 -8.984,-55.431c-5.993,-10.053 -16.813,-15.081 -32.468,-15.081l0,-3.982l82.327,0l0,3.982c-13.722,0 -23.287,5.025 -28.699,15.07c-5.412,10.045 -8.116,28.512 -8.116,55.397l0,212.736l-6.958,0l-115.1,-233.642l-3.173,-5.751c-0.577,0 -0.868,2.659 -0.868,7.978l0,144.533c0,32.509 2.887,54.083 8.656,64.724c5.766,10.641 16.538,15.96 32.308,15.96l0,4.425l-84.446,0l0,-4.425c15.074,0 25.414,-4.734 31.019,-14.202c5.602,-9.472 8.407,-28.114 8.407,-55.934l0,-150.932c0,-16.579 -2.898,-29.6 -8.697,-39.068c-6.957,-11.245 -17.2,-16.869 -30.729,-16.869l0,-3.982l60.005,0l100.041,199.126c2.499,5.013 4.034,7.524 4.611,7.524c0.577,0 0.864,-2.957 0.864,-8.872Z" style="fill:#262982;fill-rule:nonzero;"/><path d="M3399.976,998.075l0,228.178c0,8.578 0.387,14.053 1.159,16.422c0.387,1.184 1.545,2.369 3.479,3.553c5.606,3.255 17.104,4.879 34.494,4.879l0,4.425l-114.21,0l0,-4.425c8.31,0 15.506,-0.443 21.596,-1.33c6.086,-0.887 10.243,-1.996 12.463,-3.33c2.224,-1.33 3.673,-2.957 4.351,-4.883c0.674,-1.926 1.013,-7.028 1.013,-15.312l0,-228.178c0,-8.287 -0.387,-13.469 -1.159,-15.536c-0.387,-1.184 -1.643,-2.369 -3.769,-3.553c-5.606,-3.255 -17.104,-4.883 -34.494,-4.883l0,-3.982l114.501,0l0,3.982c-8.31,0 -15.506,0.443 -21.596,1.33c-6.086,0.89 -10.388,2.071 -12.899,3.553l-2.898,1.777c-1.356,1.773 -2.03,7.546 -2.03,17.312Z" style="fill:#262982;fill-rule:nonzero;"/><path d="M3520.276,1132.078l66.333,-101.017c9.114,-13.942 13.673,-25.51 13.673,-34.707c0,-7.42 -2.704,-12.981 -8.116,-16.687c-5.412,-3.71 -13.334,-5.565 -23.771,-5.565l0,-3.982l81.455,0l0,3.982c-9.274,0 -18.068,4.008 -26.378,12.016c-5.2,5.043 -17.048,22.251 -35.541,51.62l-19.07,29.816l55.192,159.167c4.056,11.528 7.777,18.549 11.159,21.063c3.382,2.51 12.128,3.766 26.233,3.766l0,3.982l-100.585,0l0,-3.982c11.979,0 19.857,-0.443 23.622,-1.326c3.769,-0.887 5.654,-3.099 5.654,-6.645c0,-1.181 -0.097,-2.216 -0.291,-3.103l-2.603,-7.975l-42.819,-127.127l-24.147,35.552l0,85.306c0,8.585 0.387,14.064 1.159,16.433c0.387,1.184 1.691,2.443 3.915,3.773c2.22,1.333 6.231,2.443 12.031,3.334c5.796,0.89 12.269,1.333 19.42,1.333l0,4.425l-111.603,0l0,-4.425c7.922,0 14.977,-0.592 21.16,-1.777c6.183,-1.185 10.194,-2.295 12.031,-3.326c1.836,-1.036 3.237,-1.847 4.201,-2.44c1.356,-1.777 2.03,-7.55 2.03,-17.312l0,-228.178c0,-8.287 -0.387,-13.469 -1.159,-15.536c-0.387,-1.184 -1.642,-2.369 -3.769,-3.553c-5.606,-3.255 -17.104,-4.883 -34.494,-4.883l0,-3.982l114.21,0l0,3.982c-17.197,0 -28.598,1.631 -34.204,4.894l-2.898,1.777c-1.356,1.784 -2.03,7.569 -2.03,17.357l0,133.947Z" style="fill:#262982;fill-rule:nonzero;"/><path d="M3835.664,1112.605c0,43.367 -9.565,79.358 -28.699,107.971c-17.39,25.961 -37.008,38.942 -58.846,38.942c-22.222,0 -41.84,-12.392 -58.843,-37.172c-19.134,-28.025 -28.699,-64.605 -28.699,-109.74c0,-43.363 9.565,-79.206 28.699,-107.528c17.39,-25.663 37.005,-38.498 58.843,-38.498c22.225,0 41.84,12.243 58.846,36.729c19.134,27.73 28.699,64.161 28.699,109.297Zm-38.555,0.223c0,-46.536 -4.093,-81.884 -12.284,-106.035c-8.187,-24.155 -20.471,-36.23 -36.852,-36.23c-16.184,0 -28.371,12.075 -36.558,36.23c-8.19,24.151 -12.284,59.498 -12.284,106.035c0,45.952 4.093,81.221 12.284,105.815c8.187,24.594 20.374,36.889 36.558,36.889c15.994,0 28.181,-12.295 36.562,-36.889c8.384,-24.594 12.574,-59.863 12.574,-105.815Z" style="fill:#262982;fill-rule:nonzero;"/><path d="M3944.037,991.802c11.237,-15.044 17.532,-23.451 18.884,-25.224l0,96.466l-2.321,-1.326c-2.704,-25.834 -9.759,-47.486 -21.16,-64.955c-11.401,-17.465 -24.352,-26.199 -38.845,-26.199c-10.049,0 -18.747,3.535 -26.088,10.604c-9.084,8.541 -13.625,21.059 -13.625,37.552c0,15.904 4.916,28.866 14.746,38.878c8.291,8.541 21.592,16.05 39.91,22.531c23.711,8.839 39.232,17.234 46.555,25.19c11.952,13.256 17.931,35.347 17.931,66.27c0,29.164 -6.187,51.699 -18.553,67.599c-10.437,13.554 -23.093,20.329 -37.977,20.329c-11.401,0 -21.596,-2.805 -30.58,-8.41c-8.988,-5.602 -16.765,-14.895 -23.335,-27.876c-11.595,23.305 -17.685,35.399 -18.262,36.286l0,-122.133l2.317,-0.443c3.672,25.373 7.829,45.728 12.467,61.066c3.862,12.981 8.406,23.749 13.625,32.304c10.239,16.813 25.123,25.22 44.64,25.22c9.081,0 17.391,-4.563 24.929,-13.696c8.697,-10.6 13.044,-23.857 13.044,-39.761c0,-19.443 -5.882,-34.763 -17.64,-45.952c-8.097,-7.658 -22.218,-15.681 -42.365,-24.076c-20.147,-8.392 -34.17,-17.007 -42.074,-25.846c-11.566,-13.297 -17.35,-32.651 -17.35,-58.064c0,-22.75 5.278,-42.033 15.838,-57.841c10.556,-15.811 23.1,-23.719 37.63,-23.719c12.4,0 22.572,2.805 30.513,8.41c2.522,1.769 8.236,7.375 17.145,16.813Z" style="fill:#262982;fill-rule:nonzero;"/></g></g></svg>